<svg id="Layer_1" data-name="Layer 1" xmlns="http://www.w3.org/2000/svg" viewBox="0 0 231.02764 55.77313"><defs><style>.cls-1,.cls-2{fill:#4f46e5;}.cls-2{isolation:isolate;font-size:29.72362px;font-family:Poppins-Bold, Poppins;font-weight:700;}</style></defs><path class="cls-1" d="M13.69828,20.10412,20.1041,13.6983h0l9.49415,9.49415a3.6368,3.6368,0,0,1,0,5.14321l-1.26261,1.26261a3.6368,3.6368,0,0,1-5.14321,0l-9.49415-9.49415Z"/><path class="cls-1" d="M54.7619,26.41575c-.00649-1.28423-.32415-1.64017-1.58322-1.79758a7.07177,7.07177,0,0,1-6.06125-5.9617,6.92819,6.92819,0,0,1,1.77441-5.81369,1.46085,1.46085,0,0,0,.01682-2.36c-1.19159-1.31992-2.40747-2.61833-3.63061-3.90918-.5972-.63026-1.23844-.60535-2.03541.00947a6.85971,6.85971,0,0,1-7.61066.88325A6.75313,6.75313,0,0,1,31.6603,1.74357C31.51784.28572,31.24417.0052,29.76768.00313,28.1233.00085,26.47888-.00422,24.83457.007c-1.07251.00733-1.46159.37535-1.56722,1.4308a7.10048,7.10048,0,0,1-6.77285,6.6064,6.87457,6.87457,0,0,1-4.88024-1.65393c-.93145-.77594-1.46183-.75194-2.33345.10866q-.6999.691-1.39394,1.38792-.69573.69525-1.38793,1.39392c-.86059.87165-.88459,1.402-.10865,2.33345a6.87475,6.87475,0,0,1,1.65393,4.88027,7.10046,7.10046,0,0,1-6.6064,6.77284C.38236,23.373.01435,23.76208.007,24.83457-.0042,26.47886.00085,28.12331.00313,29.76768c.002,1.47652.28259,1.75019,1.74044,1.89265A6.75313,6.75313,0,0,1,7.46636,35.632a6.85975,6.85975,0,0,1-.88325,7.61066c-.61483.797-.63973,1.43821-.00948,2.03539,1.29086,1.22316,2.58926,2.439,3.90919,3.63063a1.46084,1.46084,0,0,0,2.36-.01682,6.9282,6.9282,0,0,1,5.81369-1.77441,7.07175,7.07175,0,0,1,5.9617,6.06125c.15741,1.25907.51338,1.57673,1.79759,1.58322q1.68949.00851,3.379.00052c1.429-.00555,1.71135-.26485,1.87182-1.69941a7.24707,7.24707,0,0,1,5.17-6.44026,1.5892,1.5892,0,0,0,.72289-2.65744l-3.97873-3.97871a13.77693,13.77693,0,0,1-8.62465,1.30473A14.22262,14.22262,0,1,1,41.29132,24.95621a13.77662,13.77662,0,0,1-1.30473,8.62464l3.97873,3.97873a1.58919,1.58919,0,0,0,2.65743-.72288,7.247,7.247,0,0,1,6.44026-5.17c1.43456-.16047,1.69385-.44279,1.69941-1.87184Q54.769,28.10531,54.7619,26.41575Z"/><text class="cls-2" transform="translate(67.84687 37.76087)">ServiCycle</text></svg>