<svg id="Layer_1" data-name="Layer 1" xmlns="http://www.w3.org/2000/svg" viewBox="0 0 158.7971 158.79713"><defs><style>.cls-1{fill:#fff;}</style></defs><path class="cls-1" d="M53.36492,41.76036h26.2676a0,0,0,0,1,0,0v36.343A13.13379,13.13379,0,0,1,66.49873,91.23714h0A13.13379,13.13379,0,0,1,53.36492,78.10335v-36.343a0,0,0,0,1,0,0Z" transform="translate(-27.54469 66.49873) rotate(-45)"/><path class="cls-1" d="M158.78542,76.594c-.0188-3.7237-.93988-4.7558-4.59064-5.21222A20.505,20.505,0,0,1,136.61983,54.0955a20.08863,20.08863,0,0,1,5.145-16.85712c2.30151-2.51269,2.38336-4.25683.04877-6.84283-3.45508-3.82721-6.98059-7.592-10.52716-11.3349-1.73163-1.82745-3.591-1.75525-5.9018.02747-6.84051,5.2774-14.32837,6.28149-22.06756,2.561A19.58115,19.58115,0,0,1,91.801,5.05558C91.3879.82847,90.59438.015,86.31313.00908,81.54518.00248,76.77706-.01223,72.0093.02037c-3.10981.02124-4.238,1.08832-4.54425,4.14868C66.39247,14.88609,58.50039,22.743,47.8268,23.32469A19.93324,19.93324,0,0,1,33.67623,18.529c-2.70081-2.24987-4.23865-2.18029-6.766.31507q-2.02937,2.00362-4.04181,4.02435-2.01728,2.0159-4.02436,4.04175c-2.49536,2.5274-2.56494,4.06525-.31506,6.766a19.93353,19.93353,0,0,1,4.79565,14.15063C22.74294,58.50041,14.88607,66.3925,4.169,67.46507,1.10866,67.77134.04158,68.89952.02034,72.00932-.01219,76.777.00246,81.54521.00905,86.31315.015,90.5944.82845,91.38792,5.05556,91.801a19.58094,19.58094,0,0,1,16.59357,11.51611c3.72046,7.7392,2.71637,15.227-2.561,22.06757-1.78271,2.31085-1.85492,4.17016-.02746,5.90173,3.74292,3.54663,7.50769,7.07214,11.3349,10.52722,2.586,2.3346,4.3302,2.25269,6.84283-.04877a20.08869,20.08869,0,0,1,16.85712-5.145,20.50492,20.50492,0,0,1,17.28631,17.575c.45642,3.65075,1.48859,4.57183,5.21222,4.59063q4.89881.02463,9.79779.00153c4.14356-.01611,4.96216-.76795,5.42743-4.92755,1.07135-9.57692,7.09464-16.51512,14.99083-18.67391a4.608,4.608,0,0,0,2.096-7.70539L97.36953,115.94359a39.94677,39.94677,0,0,1-25.00769,3.78314A41.23931,41.23931,0,1,1,119.7267,72.36186a39.94669,39.94669,0,0,1-3.78314,25.00769l11.53655,11.53655a4.60794,4.60794,0,0,0,7.70538-2.096c2.15879-7.89622,9.097-13.9195,18.6739-14.9908,4.15961-.46527,4.91144-1.28388,4.92756-5.42749Q158.806,81.493,158.78542,76.594Z"/></svg>